<svg xmlns="http://www.w3.org/2000/svg" width="512" height="512" viewBox="0 0 256 256">
  <defs>
    <linearGradient id="goldGrad" x1="0" y1="0" x2="0" y2="1">
      <stop offset="0%" stop-color="#D4AF37"/>
      <stop offset="100%" stop-color="#b38f2c"/>
    </linearGradient>
  </defs>
  <circle cx="86" cy="60" r="16" fill="url(#goldGrad)"/>
  <circle cx="170" cy="60" r="16" fill="url(#goldGrad)"/>
  <path d="M58 116c0-24 18-44 42-44 16 0 29 8 34 20 5-12 18-20 34-20 24 0 42 20 42 44 0 44-60 68-76 84-16-16-76-40-76-84z" fill="none" stroke="url(#goldGrad)" stroke-width="16" stroke-linecap="round" stroke-linejoin="round"/>
  <path d="M92 132c10-12 28-28 36-28s26 16 36 28" fill="none" stroke="url(#goldGrad)" stroke-width="16" stroke-linecap="round"/>
</svg>